<svg xmlns="http://www.w3.org/2000/svg" viewBox="0 0 230.61 230.64" fill-rule="evenodd" xmlns:v="https://vecta.io/nano"><path d="M115.31 0C179 0 230.62 51.64 230.62 115.31S179 230.64 115.31 230.64 0 179 0 115.31 51.62 0 115.31 0z" fill="#921b1d"/><path d="M114.51 131.8V44.37c-23.26 1.05-41.8 20.21-41.8 43.73s18.53 42.68 41.8 43.7zm6.64-.19V44.55a48.05 48.05 0 0 0-4.67-.22h-.82v87.53h.82c1.59 0 3.12-.1 4.67-.25zm6.61-1.21V45.8c-1.78-.48-3.59-.86-5.47-1.08v86.76c1.88-.25 3.69-.63 5.47-1.08zm6.64-2.38V48.15c-1.74-.8-3.59-1.46-5.47-2.03v83.93c1.88-.54 3.73-1.24 5.47-2.03zm6.65-3.72V51.87c-1.75-1.18-3.56-2.26-5.47-3.18v78.79c1.9-.93 3.72-1.97 5.47-3.18zm6.64-5.53V57.39a40.6 40.6 0 0 0-5.5-4.7v70.81c1.98-1.42 3.82-3.02 5.5-4.74zm1.15-60.13v58.92c7.09-7.79 11.41-18.12 11.41-29.46s-4.32-21.71-11.41-29.46zm-54.73 93.25l32.89 7.62c20.57 5.95 13.92 28.67-.98 28.61-12.94-.03-19.86-16.05-7.57-24.57-32.8-7.72-30 41.99 6.01 41.41 32.86-.5 37.34-40.17 18.66-50.75-11.8-9.22-79.21-2.99-82.41-61.5 3.65-76.4 108.41-73.28 111.56 0-.03 18.79-6.87 31.18-19.42 42.75 31.43 32.26 11.54 79.24-26.82 79.21-29.33 0-52.54-29.79-31.91-62.77z" fill="#ececec"/></svg>